#!OML:ASF H:\LiuWeirdWalks\Patient Classification 1\Patient 1\Session 1\male.ASF
:FULLY-SPECIFIED
:DEGREES
559
root 0.833362 18.0016 -19.461 7.04422 10.7072 8.37939
lowerback 11.8789 -0.131969 0.293067
upperback 1.59567 0.28967 7.2164
thorax -5.03577 0.218176 7.46924
lowerneck -20.6293 -0.11016 9.68204
upperneck 12.5579 0.193169 -18.1402
head 7.30497 -1.15538 -7.75259
rclavicle -9.54166e-015 -6.36111e-015
rhumerus -21.3832 -33.6591 -8.22349
rradius 34.9497
rwrist -3.02263
rhand -21.6687 -1.55319
rfingers 7.12502
rthumb 4.72864 -31.4804
lclavicle -9.54166e-015 -6.36111e-015
lhumerus -27.0938 25.7469 29.7643
lradius 45.4741
lwrist 13.719
lhand -18.9043 0.965037
lfingers 7.12502
lthumb 7.3975 30.8157
rfemur -26.5393 -5.68204 3.82585
rtibia 33.0346
rfoot -2.47368 -21.7501
rtoes -0.202508
lfemur 3.44676 -1.80921 -23.5805
ltibia 23.0348
lfoot -2.12746 12.885
ltoes -17.0717
560
root 0.786592 18.0198 -19.3678 7.0093 10.7939 8.31868
lowerback 11.8281 -0.151336 0.464534
upperback 1.56677 0.290472 7.29166
thorax -5.03815 0.216841 7.45135
lowerneck -20.6812 -0.0901446 9.70211
upperneck 12.6191 0.242407 -18.2724
head 7.34301 -1.14615 -7.80354
rclavicle -5.56597e-015 -7.31528e-014
rhumerus -21.404 -33.7795 -8.13978
rradius 34.8855
rwrist -2.87827
rhand -21.6884 -1.5562
rfingers 7.12502
rthumb 4.7097 -31.4839
lclavicle -5.56597e-015 -7.31528e-014
lhumerus -26.8646 25.8249 29.6685
lradius 45.5316
lwrist 13.8025
lhand -18.8592 0.927849
lfingers 7.12502
lthumb 7.44107 30.777
rfemur -26.1541 -5.76394 4.12736
rtibia 32.996
rfoot -2.83533 -21.771
rtoes -0.195093
lfemur 3.44623 -1.83829 -23.2953
ltibia 23.4513
lfoot -1.60628 12.5779
ltoes -17.1385
561
root 0.741271 18.0373 -19.2764 6.98231 10.8626 8.24192
lowerback 11.7844 -0.161708 0.656905
upperback 1.52664 0.306934 7.36802
thorax -5.0583 0.223313 7.4205
lowerneck -20.7229 -0.0709373 9.71743
upperneck 12.6849 0.293941 -18.4078
head 7.38126 -1.13605 -7.85459
rclavicle 2.8625e-014 2.54444e-014
rhumerus -21.429 -33.9051 -8.00869
rradius 34.8346
rwrist -2.83907
rhand -21.7559 -1.56246
rfingers 7.12502
rthumb 4.64449 -31.4915
lclavicle 2.8625e-014 2.54444e-014
lhumerus -26.6152 25.9079 29.5814
lradius 45.5877
lwrist 13.8811
lhand -18.8298 0.902166
lfingers 7.12502
lthumb 7.46943 30.7503
rfemur -25.7846 -5.82438 4.43663
rtibia 32.9346
rfoot -3.17209 -21.7912
rtoes -0.181916
lfemur 3.39624 -1.84777 -23.0027
ltibia 23.9193
lfoot -1.08566 12.285
ltoes -17.1982
562
root 0.696748 18.0542 -19.1862 6.94894 10.9301 8.14023
lowerback 11.7453 -0.16905 0.868744
upperback 1.48442 0.330815 7.45323
thorax -5.08407 0.233256 7.38714
lowerneck -20.7259 -0.0584496 9.73611
upperneck 12.7099 0.335303 -18.5596
head 7.39843 -1.12975 -7.91019
rclavicle 1.59028e-015 -2.22639e-014
rhumerus -21.4546 -34.043 -7.83867
rradius 34.7936
rwrist -2.83325
rhand -21.867 -1.59277
rfingers 7.12502
rthumb 4.53721 -31.5242
lclavicle 1.59028e-015 -2.22639e-014
lhumerus -26.3573 25.9913 29.5064
lradius 45.6591
lwrist 13.9553
lhand -18.7879 0.87922
lfingers 7.12502
lthumb 7.5099 30.7259
rfemur -25.4053 -5.84695 4.76305
rtibia 32.851
rfoot -3.49554 -21.8355
rtoes -0.156193
lfemur 3.31152 -1.8471 -22.6842
ltibia 24.4392
lfoot -0.578946 11.9951
ltoes -17.2394
563
root 0.65339 18.0705 -19.0977 6.91258 10.9704 8.02028
lowerback 11.7241 -0.164893 1.09499
upperback 1.44135 0.373035 7.54175
thorax -5.12278 0.252147 7.34666
lowerneck -20.734 -0.0559934 9.72794
upperneck 12.7317 0.368917 -18.705
head 7.41437 -1.12815 -7.95966
rclavicle -1.51076e-014 -1.49486e-013
rhumerus -21.4739 -34.177 -7.64448
rradius 34.7604
rwrist -2.89153
rhand -22.0452 -1.6557
rfingers 7.12502
rthumb 4.36516 -31.5907
lclavicle -1.51076e-014 -1.49486e-013
lhumerus -26.0826 26.0925 29.4419
lradius 45.7337
lwrist 14.002
lhand -18.7633 0.894712
lfingers 7.12502
lthumb 7.53359 30.7406
rfemur -25.0324 -5.81805 5.09778
rtibia 32.7494
rfoot -3.79671 -21.893
rtoes -0.131742
lfemur 3.18992 -1.82707 -22.3572
ltibia 25.006
lfoot -0.0760366 11.7182
ltoes -17.2477
564
root 0.610831 18.0865 -19.0105 6.87417 10.9972 7.89246
lowerback 11.7024 -0.15106 1.31849
upperback 1.40471 0.427435 7.63212
thorax -5.15568 0.276847 7.30776
lowerneck -20.7463 -0.0705724 9.67226
upperneck 12.7701 0.388735 -18.8149
head 7.43394 -1.13295 -7.99016
rclavicle -2.8625e-014 -4.45278e-014
rhumerus -21.506 -34.3082 -7.41999
rradius 34.7281
rwrist -2.93962
rhand -22.2423 -1.69184
rfingers 7.12502
rthumb 4.17481 -31.6307
lclavicle -2.8625e-014 -4.45278e-014
lhumerus -25.7828 26.2075 29.3949
lradius 45.8139
lwrist 14.021
lhand -18.7509 0.969695
lfingers 7.12502
lthumb 7.54562 30.8151
rfemur -24.6581 -5.74537 5.43195
rtibia 32.6333
rfoot -4.08625 -21.9723
rtoes -0.106479
lfemur 3.03146 -1.79295 -22.0282
ltibia 25.6173
lfoot 0.418252 11.4565
ltoes -17.2286
565
root 0.569608 18.102 -18.9241 6.82527 11.0157 7.77834
lowerback 11.6894 -0.133868 1.52046
upperback 1.37983 0.483142 7.72107
thorax -5.18108 0.302269 7.27965
lowerneck -20.7785 -0.0918675 9.60326
upperneck 12.7947 0.400799 -18.9283
head 7.4515 -1.14312 -8.02045
rclavicle -3.18055e-015 -7.63333e-014
rhumerus -21.5256 -34.4174 -7.19122
rradius 34.6871
rwrist -2.95738
rhand -22.4872 -1.7454
rfingers 7.12502
rthumb 3.93834 -31.6887
lclavicle -3.18055e-015 -7.63333e-014
lhumerus -25.4775 26.3313 29.3549
lradius 45.8999
lwrist 14.0316
lhand -18.7367 1.04042
lfingers 7.12502
lthumb 7.55931 30.8853
rfemur -24.2664 -5.65588 5.74229
rtibia 32.5085
rfoot -4.37218 -22.0552
rtoes -0.0877258
lfemur 2.85482 -1.75022 -21.7231
ltibia 26.2713
lfoot 0.884864 11.2007
ltoes -17.2024
566
root 0.529313 18.1169 -18.8391 6.7682 11.0231 7.6661
lowerback 11.6859 -0.112186 1.70858
upperback 1.36578 0.543044 7.81296
thorax -5.20072 0.329825 7.26218
lowerneck -20.8662 -0.130233 9.46195
upperneck 12.8929 0.407655 -18.986
head 7.50117 -1.15863 -8.0235
rclavicle 1.43125e-014 1.59028e-014
rhumerus -21.5292 -34.4835 -6.97351
rradius 34.6311
rwrist -2.92707
rhand -22.7687 -1.78151
rfingers 7.12502
rthumb 3.66645 -31.7297
lclavicle 1.43125e-014 1.59028e-014
lhumerus -25.1635 26.4666 29.324
lradius 45.981
lwrist 14.0565
lhand -18.7279 1.08944
lfingers 7.12502
lthumb 7.56783 30.934
rfemur -23.872 -5.53748 6.04418
rtibia 32.3802
rfoot -4.64575 -22.1554
rtoes -0.0849922
lfemur 2.65292 -1.70435 -21.4302
ltibia 26.972
lfoot 1.31483 10.9507
ltoes -17.1335
567
root 0.490447 18.1311 -18.7552 6.7075 11.0176 7.57561
lowerback 11.6788 -0.0902207 1.86671
upperback 1.36292 0.598077 7.90073
thorax -5.20592 0.355179 7.25808
lowerneck -20.95 -0.159366 9.35216
upperneck 12.9733 0.421167 -19.0717
head 7.5459 -1.17143 -8.04083
rclavicle -2.06736e-014 -1.59028e-014
rhumerus -21.4934 -34.5395 -6.78836
rradius 34.5444
rwrist -2.84736
rhand -23.0487 -1.79012
rfingers 7.12502
rthumb 3.39604 -31.7428
lclavicle -2.06736e-014 -1.59028e-014
lhumerus -24.8568 26.625 29.2834
lradius 46.0479
lwrist 14.0723
lhand -18.6973 1.09942
lfingers 7.12502
lthumb 7.59731 30.943
rfemur -23.4789 -5.41801 6.31683
rtibia 32.2542
rfoot -4.91247 -22.2517
rtoes -0.0910628
lfemur 2.4306 -1.65929 -21.1755
ltibia 27.7186
lfoot 1.66327 10.7097
ltoes -17.0281
568
root 0.453312 18.1442 -18.6729 6.63594 11.0121 7.50445
lowerback 11.686 -0.0720349 2.00843
upperback 1.36147 0.64665 7.98519
thorax -5.21694 0.377694 7.2613
lowerneck -20.9973 -0.183043 9.24088
upperneck 13.0502 0.445459 -19.1609
head 7.58496 -1.1779 -8.0567
rclavicle -1.66979e-014 -3.81667e-014
rhumerus -21.4377 -34.5328 -6.63651
rradius 34.4459
rwrist -2.75468
rhand -23.3131 -1.78995
rfingers 7.12502
rthumb 3.14071 -31.7466
lclavicle -1.66979e-014 -3.81667e-014
lhumerus -24.5756 26.7586 29.2347
lradius 46.118
lwrist 14.1143
lhand -18.6655 1.13103
lfingers 7.12502
lthumb 7.62799 30.9735
rfemur -23.0787 -5.3096 6.56305
rtibia 32.1337
rfoot -5.16368 -22.3437
rtoes -0.122202
lfemur 2.19619 -1.6282 -20.9563
ltibia 28.5147
lfoot 1.92407 10.4861
ltoes -16.836
569
root 0.417683 18.1563 -18.5921 6.56073 10.9964 7.46219
lowerback 11.6915 -0.0533934 2.1182
upperback 1.36815 0.690432 8.06187
thorax -5.21794 0.398173 7.27506
lowerneck -20.9906 -0.156001 9.25661
upperneck 13.0387 0.511165 -19.3493
head 7.59381 -1.1624 -8.12106
rclavicle 1.98785e-014 6.36111e-014
rhumerus -21.3667 -34.5225 -6.51666
rradius 34.3242
rwrist -2.61815
rhand -23.4952 -1.7128
rfingers 7.12502
rthumb 2.96489 -31.6719
lclavicle 1.98785e-014 6.36111e-014
lhumerus -24.303 26.8943 29.1801
lradius 46.1766
lwrist 14.1664
lhand -18.6126 1.12629
lfingers 7.12502
lthumb 7.67904 30.9669
rfemur -22.6821 -5.20787 6.77218
rtibia 32.0205
rfoot -5.39785 -22.4288
rtoes -0.170487
lfemur 1.95024 -1.61483 -20.7887
ltibia 29.3507
lfoot 2.05474 10.3035
ltoes -16.6022
570
root 0.38398 18.1673 -18.5128 6.48158 10.9682 7.44273
lowerback 11.6998 -0.0341429 2.20519
upperback 1.37877 0.731531 8.13219
thorax -5.21616 0.417629 7.29548
lowerneck -20.9487 -0.110362 9.32788
upperneck 12.9811 0.588784 -19.578
head 7.58424 -1.13913 -8.20554
rclavicle 2.46493e-014 3.18055e-014
rhumerus -21.2903 -34.5012 -6.43166
rradius 34.1927
rwrist -2.42789
rhand -23.5753 -1.58052
rfingers 7.12502
rthumb 2.88753 -31.5407
lclavicle 2.46493e-014 3.18055e-014
lhumerus -24.0618 26.9893 29.121
lradius 46.2474
lwrist 14.2389
lhand -18.5707 1.1169
lfingers 7.12502
lthumb 7.71949 30.956
rfemur -22.29 -5.11528 6.94887
rtibia 31.915
rfoot -5.6179 -22.5003
rtoes -0.228967
lfemur 1.69413 -1.61415 -20.6664
ltibia 30.2197
lfoot 2.04144 10.1729
ltoes -16.4063
571
root 0.351934 18.1774 -18.4345 6.3892 10.927 7.43978
lowerback 11.7282 -0.0145802 2.27186
upperback 1.39273 0.771325 8.1982
thorax -5.22201 0.436855 7.32356
lowerneck -20.8884 -0.0622382 9.40597
upperneck 12.893 0.664095 -19.805
head 7.56152 -1.11468 -8.28887
rclavicle 8.74653e-015 3.18055e-015
rhumerus -21.2133 -34.4795 -6.38536
rradius 34.0643
rwrist -2.24861
rhand -23.5989 -1.4437
rfingers 7.12502
rthumb 2.86474 -31.4042
lclavicle 8.74653e-015 3.18055e-015
lhumerus -23.845 27.0693 29.0543
lradius 46.3147
lwrist 14.3001
lhand -18.5274 1.11138
lfingers 7.12502
lthumb 7.76132 30.9489
rfemur -21.8904 -5.01949 7.0991
rtibia 31.8161
rfoot -5.83022 -22.5663
rtoes -0.28991
lfemur 1.44455 -1.63074 -20.584
ltibia 31.1067
lfoot 1.8906 10.1209
ltoes -16.1735
572
root 0.321575 18.1866 -18.3571 6.29324 10.873 7.44614
lowerback 11.7526 0.0116846 2.33149
upperback 1.41465 0.817746 8.25793
thorax -5.21794 0.459196 7.34738
lowerneck -20.8571 -0.0247085 9.44405
upperneck 12.8581 0.732921 -19.978
head 7.55938 -1.09305 -8.34961
rclavicle 1.03368e-014 -3.49861e-014
rhumerus -21.174 -34.4478 -6.36491
rradius 33.9637
rwrist -2.13199
rhand -23.5689 -1.31577
rfingers 7.12502
rthumb 2.89369 -31.2759
lclavicle 1.03368e-014 -3.49861e-014
lhumerus -23.6206 27.1366 29.0019
lradius 46.3739
lwrist 14.3598
lhand -18.5216 1.14191
lfingers 7.12502
lthumb 7.76693 30.9793
rfemur -21.4947 -4.91968 7.23181
rtibia 31.7222
rfoot -6.0342 -22.6304
rtoes -0.344043
lfemur 1.19391 -1.66183 -20.5328
ltibia 31.9978
lfoot 1.60332 10.1867
ltoes -16.0024
573
root 0.29275 18.195 -18.2807 6.1909 10.8153 7.44606
lowerback 11.7954 0.0393028 2.39608
upperback 1.42699 0.868811 8.31724
thorax -5.23476 0.484064 7.36775
lowerneck -20.82 -0.00282269 9.45439
upperneck 12.8564 0.787082 -20.1165
head 7.56399 -1.07732 -8.39574
rclavicle -9.54166e-015 -3.18055e-014
rhumerus -21.1671 -34.4433 -6.36357
rradius 33.8724
rwrist -2.00736
rhand -23.4976 -1.20596
rfingers 7.12502
rthumb 2.96252 -31.1651
lclavicle -9.54166e-015 -3.18055e-014
lhumerus -23.4239 27.1573 28.9449
lradius 46.4359
lwrist 14.4067
lhand -18.5195 1.19212
lfingers 7.12502
lthumb 7.76896 31.0294
rfemur -21.0985 -4.81704 7.36521
rtibia 31.6321
rfoot -6.23705 -22.696
rtoes -0.383714
lfemur 0.947447 -1.70865 -20.4924
ltibia 32.8779
lfoot 1.20591 10.3831
ltoes -15.853
